<?xml version="1.0" encoding="UTF-8" standalone="no"?>
<!DOCTYPE svg PUBLIC "-//W3C//DTD SVG 1.1//EN"
 "http://www.w3.org/Graphics/SVG/1.1/DTD/svg11.dtd">
<!-- Generated by graphviz version 2.40.1 (20161225.0304)
 -->
<!-- Title: dependencies Pages: 1 -->
<svg width="1046pt" height="284pt"
 viewBox="0.00 0.00 1046.00 284.00" xmlns="http://www.w3.org/2000/svg" xmlns:xlink="http://www.w3.org/1999/xlink">
<g id="graph0" class="graph" transform="scale(1 1) rotate(0) translate(4 280)">
<title>dependencies</title>
<polygon fill="#ffffff" stroke="transparent" points="-4,4 -4,-280 1042,-280 1042,4 -4,4"/>
<text text-anchor="start" x="498.0091" y="-42.4" font-family="sans-serif" font-weight="bold" font-size="14.00" fill="#000000">Legend</text>
<polygon fill="#ffffb3" stroke="transparent" points="285,-10 285,-30 305,-30 305,-10 285,-10"/>
<text text-anchor="start" x="308.629" y="-15.4" font-family="sans-serif" font-size="14.00" fill="#000000"> &#160;Declarations</text>
<polygon fill="#8dd3c7" stroke="transparent" points="398,-10 398,-30 418,-30 418,-10 398,-10"/>
<text text-anchor="start" x="421.7251" y="-15.4" font-family="sans-serif" font-size="14.00" fill="#000000"> &#160;Module</text>
<polygon fill="#80b1d3" stroke="transparent" points="484,-10 484,-30 504,-30 504,-10 484,-10"/>
<text text-anchor="start" x="507.7812" y="-15.4" font-family="sans-serif" font-size="14.00" fill="#000000"> &#160;Bootstrap</text>
<polygon fill="#fdb462" stroke="transparent" points="581,-10 581,-30 601,-30 601,-10 581,-10"/>
<text text-anchor="start" x="604.6732" y="-15.4" font-family="sans-serif" font-size="14.00" fill="#000000"> &#160;Providers</text>
<polygon fill="#fb8072" stroke="transparent" points="677,-10 677,-30 697,-30 697,-10 677,-10"/>
<text text-anchor="start" x="700.7258" y="-15.4" font-family="sans-serif" font-size="14.00" fill="#000000"> &#160;Exports</text>
<g id="clust1" class="cluster">
<title>cluster_AppModule</title>
<polygon fill="none" stroke="#000000" stroke-dasharray="1,5" points="8,-70 8,-268 1030,-268 1030,-70 8,-70"/>
</g>
<g id="clust2" class="cluster">
<title>cluster_AppModule_declarations</title>
<polygon fill="none" stroke="#000000" points="285,-78 285,-130 1022,-130 1022,-78 285,-78"/>
</g>
<g id="clust8" class="cluster">
<title>cluster_AppModule_imports</title>
<polygon fill="none" stroke="#000000" points="16,-78 16,-130 277,-130 277,-78 16,-78"/>
</g>
<g id="clust10" class="cluster">
<title>cluster_AppModule_bootstrap</title>
<polygon fill="none" stroke="#000000" points="472,-208 472,-260 596,-260 596,-208 472,-208"/>
</g>
<!-- AppComponent -->
<g id="node1" class="node">
<title>AppComponent</title>
<polygon fill="#ffffb3" stroke="#000000" points="1013.9399,-122 908.0601,-122 908.0601,-86 1013.9399,-86 1013.9399,-122"/>
<text text-anchor="middle" x="961" y="-99.8" font-family="Times,serif" font-size="14.00" fill="#000000">AppComponent</text>
</g>
<!-- AppModule -->
<g id="node6" class="node">
<title>AppModule</title>
<polygon fill="#8dd3c7" stroke="#000000" points="575.6571,-187 572.6571,-191 551.6571,-191 548.6571,-187 492.3429,-187 492.3429,-151 575.6571,-151 575.6571,-187"/>
<text text-anchor="middle" x="534" y="-164.8" font-family="Times,serif" font-size="14.00" fill="#000000">AppModule</text>
</g>
<!-- AppComponent&#45;&gt;AppModule -->
<g id="edge1" class="edge">
<title>AppComponent&#45;&gt;AppModule</title>
<path fill="none" stroke="#000000" d="M961,-122.2921C961,-144.2057 961,-178 961,-178 961,-178 585.72,-178 585.72,-178"/>
<polygon fill="#000000" stroke="#000000" points="585.7201,-174.5001 575.72,-178 585.72,-181.5001 585.7201,-174.5001"/>
</g>
<!-- GetStartedComponent -->
<g id="node2" class="node">
<title>GetStartedComponent</title>
<polygon fill="#ffffb3" stroke="#000000" points="890.6979,-122 749.3021,-122 749.3021,-86 890.6979,-86 890.6979,-122"/>
<text text-anchor="middle" x="820" y="-99.8" font-family="Times,serif" font-size="14.00" fill="#000000">GetStartedComponent</text>
</g>
<!-- GetStartedComponent&#45;&gt;AppModule -->
<g id="edge2" class="edge">
<title>GetStartedComponent&#45;&gt;AppModule</title>
<path fill="none" stroke="#000000" d="M820,-122.1061C820,-141.3391 820,-169 820,-169 820,-169 585.8931,-169 585.8931,-169"/>
<polygon fill="#000000" stroke="#000000" points="585.8932,-165.5001 575.8931,-169 585.8931,-172.5001 585.8932,-165.5001"/>
</g>
<!-- HeaderComponent -->
<g id="node3" class="node">
<title>HeaderComponent</title>
<polygon fill="#ffffb3" stroke="#000000" points="731.7437,-122 610.2563,-122 610.2563,-86 731.7437,-86 731.7437,-122"/>
<text text-anchor="middle" x="671" y="-99.8" font-family="Times,serif" font-size="14.00" fill="#000000">HeaderComponent</text>
</g>
<!-- HeaderComponent&#45;&gt;AppModule -->
<g id="edge3" class="edge">
<title>HeaderComponent&#45;&gt;AppModule</title>
<path fill="none" stroke="#000000" d="M671,-122.027C671,-138.3976 671,-160 671,-160 671,-160 585.8489,-160 585.8489,-160"/>
<polygon fill="#000000" stroke="#000000" points="585.849,-156.5001 575.8489,-160 585.8489,-163.5001 585.849,-156.5001"/>
</g>
<!-- HomeComponent -->
<g id="node4" class="node">
<title>HomeComponent</title>
<polygon fill="#ffffb3" stroke="#000000" points="591.5451,-122 476.4549,-122 476.4549,-86 591.5451,-86 591.5451,-122"/>
<text text-anchor="middle" x="534" y="-99.8" font-family="Times,serif" font-size="14.00" fill="#000000">HomeComponent</text>
</g>
<!-- HomeComponent&#45;&gt;AppModule -->
<g id="edge4" class="edge">
<title>HomeComponent&#45;&gt;AppModule</title>
<path fill="none" stroke="#000000" d="M534,-122.1061C534,-122.1061 534,-140.991 534,-140.991"/>
<polygon fill="#000000" stroke="#000000" points="530.5001,-140.9909 534,-150.991 537.5001,-140.991 530.5001,-140.9909"/>
</g>
<!-- PageNotFoundComponent -->
<g id="node5" class="node">
<title>PageNotFoundComponent</title>
<polygon fill="#ffffb3" stroke="#000000" points="458.8243,-122 293.1757,-122 293.1757,-86 458.8243,-86 458.8243,-122"/>
<text text-anchor="middle" x="376" y="-99.8" font-family="Times,serif" font-size="14.00" fill="#000000">PageNotFoundComponent</text>
</g>
<!-- PageNotFoundComponent&#45;&gt;AppModule -->
<g id="edge5" class="edge">
<title>PageNotFoundComponent&#45;&gt;AppModule</title>
<path fill="none" stroke="#000000" d="M376,-122.027C376,-138.3976 376,-160 376,-160 376,-160 482.0737,-160 482.0737,-160"/>
<polygon fill="#000000" stroke="#000000" points="482.0738,-163.5001 492.0737,-160 482.0737,-156.5001 482.0738,-163.5001"/>
</g>
<!-- AppComponent  -->
<g id="node9" class="node">
<title>AppComponent </title>
<polygon fill="#80b1d3" stroke="#000000" points="588.439,-252 479.561,-252 479.561,-216 588.439,-216 588.439,-252"/>
<text text-anchor="middle" x="534" y="-229.8" font-family="Times,serif" font-size="14.00" fill="#000000">AppComponent </text>
</g>
<!-- AppModule&#45;&gt;AppComponent  -->
<g id="edge8" class="edge">
<title>AppModule&#45;&gt;AppComponent </title>
<path fill="none" stroke="#000000" stroke-dasharray="1,5" d="M534,-187.1061C534,-187.1061 534,-205.991 534,-205.991"/>
<polygon fill="#000000" stroke="#000000" points="530.5001,-205.9909 534,-215.991 537.5001,-205.991 530.5001,-205.9909"/>
</g>
<!-- AppRoutingModule -->
<g id="node7" class="node">
<title>AppRoutingModule</title>
<polygon fill="#8dd3c7" stroke="#000000" points="269.2744,-122 266.2744,-126 245.2744,-126 242.2744,-122 140.7256,-122 140.7256,-86 269.2744,-86 269.2744,-122"/>
<text text-anchor="middle" x="205" y="-99.8" font-family="Times,serif" font-size="14.00" fill="#000000">AppRoutingModule</text>
</g>
<!-- AppRoutingModule&#45;&gt;AppModule -->
<g id="edge6" class="edge">
<title>AppRoutingModule&#45;&gt;AppModule</title>
<path fill="none" stroke="#000000" d="M205,-122.1061C205,-141.3391 205,-169 205,-169 205,-169 482.3319,-169 482.3319,-169"/>
<polygon fill="#000000" stroke="#000000" points="482.332,-172.5001 492.3319,-169 482.3319,-165.5001 482.332,-172.5001"/>
</g>
<!-- SharedModule -->
<g id="node8" class="node">
<title>SharedModule</title>
<polygon fill="#8dd3c7" stroke="#000000" points="122.4231,-122 119.4231,-126 98.4231,-126 95.4231,-122 23.5769,-122 23.5769,-86 122.4231,-86 122.4231,-122"/>
<text text-anchor="middle" x="73" y="-99.8" font-family="Times,serif" font-size="14.00" fill="#000000">SharedModule</text>
</g>
<!-- SharedModule&#45;&gt;AppModule -->
<g id="edge7" class="edge">
<title>SharedModule&#45;&gt;AppModule</title>
<path fill="none" stroke="#000000" d="M73,-122.2921C73,-144.2057 73,-178 73,-178 73,-178 482.2763,-178 482.2763,-178"/>
<polygon fill="#000000" stroke="#000000" points="482.2763,-181.5001 492.2763,-178 482.2762,-174.5001 482.2763,-181.5001"/>
</g>
</g>
</svg>
