<?xml version="1.0" encoding="UTF-8" standalone="no"?>
<!DOCTYPE svg PUBLIC "-//W3C//DTD SVG 1.1//EN"
 "http://www.w3.org/Graphics/SVG/1.1/DTD/svg11.dtd">
<!-- Generated by graphviz version 2.40.1 (20161225.0304)
 -->
<!-- Title: dependencies Pages: 1 -->
<svg width="984pt" height="211pt"
 viewBox="0.00 0.00 984.00 211.00" xmlns="http://www.w3.org/2000/svg" xmlns:xlink="http://www.w3.org/1999/xlink">
<g id="graph0" class="graph" transform="scale(1 1) rotate(0) translate(4 207)">
<title>dependencies</title>
<polygon fill="#ffffff" stroke="transparent" points="-4,4 -4,-207 980,-207 980,4 -4,4"/>
<text text-anchor="start" x="467.0091" y="-42.4" font-family="sans-serif" font-weight="bold" font-size="14.00" fill="#000000">Legend</text>
<polygon fill="#ffffb3" stroke="transparent" points="254,-10 254,-30 274,-30 274,-10 254,-10"/>
<text text-anchor="start" x="277.629" y="-15.4" font-family="sans-serif" font-size="14.00" fill="#000000"> &#160;Declarations</text>
<polygon fill="#8dd3c7" stroke="transparent" points="367,-10 367,-30 387,-30 387,-10 367,-10"/>
<text text-anchor="start" x="390.7251" y="-15.4" font-family="sans-serif" font-size="14.00" fill="#000000"> &#160;Module</text>
<polygon fill="#80b1d3" stroke="transparent" points="453,-10 453,-30 473,-30 473,-10 453,-10"/>
<text text-anchor="start" x="476.7812" y="-15.4" font-family="sans-serif" font-size="14.00" fill="#000000"> &#160;Bootstrap</text>
<polygon fill="#fdb462" stroke="transparent" points="550,-10 550,-30 570,-30 570,-10 550,-10"/>
<text text-anchor="start" x="573.6732" y="-15.4" font-family="sans-serif" font-size="14.00" fill="#000000"> &#160;Providers</text>
<polygon fill="#fb8072" stroke="transparent" points="646,-10 646,-30 666,-30 666,-10 646,-10"/>
<text text-anchor="start" x="669.7258" y="-15.4" font-family="sans-serif" font-size="14.00" fill="#000000"> &#160;Exports</text>
<g id="clust1" class="cluster">
<title>cluster_EventModule</title>
<polygon fill="none" stroke="#000000" stroke-dasharray="1,5" points="8,-70 8,-195 968,-195 968,-70 8,-70"/>
</g>
<g id="clust2" class="cluster">
<title>cluster_EventModule_declarations</title>
<polygon fill="none" stroke="#000000" points="294,-78 294,-130 960,-130 960,-78 294,-78"/>
</g>
<g id="clust7" class="cluster">
<title>cluster_EventModule_imports</title>
<polygon fill="none" stroke="#000000" points="16,-78 16,-130 286,-130 286,-78 16,-78"/>
</g>
<!-- EventCardComponent -->
<g id="node1" class="node">
<title>EventCardComponent</title>
<polygon fill="#ffffb3" stroke="#000000" points="951.7021,-122 810.2979,-122 810.2979,-86 951.7021,-86 951.7021,-122"/>
<text text-anchor="middle" x="881" y="-99.8" font-family="Times,serif" font-size="14.00" fill="#000000">EventCardComponent</text>
</g>
<!-- EventModule -->
<g id="node5" class="node">
<title>EventModule</title>
<polygon fill="#8dd3c7" stroke="#000000" points="495.2078,-187 492.2078,-191 471.2078,-191 468.2078,-187 402.7922,-187 402.7922,-151 495.2078,-151 495.2078,-187"/>
<text text-anchor="middle" x="449" y="-164.8" font-family="Times,serif" font-size="14.00" fill="#000000">EventModule</text>
</g>
<!-- EventCardComponent&#45;&gt;EventModule -->
<g id="edge1" class="edge">
<title>EventCardComponent&#45;&gt;EventModule</title>
<path fill="none" stroke="#000000" d="M881,-122.2843C881,-143.3211 881,-175 881,-175 881,-175 505.2316,-175 505.2316,-175"/>
<polygon fill="#000000" stroke="#000000" points="505.2316,-171.5001 495.2316,-175 505.2315,-178.5001 505.2316,-171.5001"/>
</g>
<!-- EventDashboardComponent -->
<g id="node2" class="node">
<title>EventDashboardComponent</title>
<polygon fill="#ffffb3" stroke="#000000" points="792.1316,-122 617.8684,-122 617.8684,-86 792.1316,-86 792.1316,-122"/>
<text text-anchor="middle" x="705" y="-99.8" font-family="Times,serif" font-size="14.00" fill="#000000">EventDashboardComponent</text>
</g>
<!-- EventDashboardComponent&#45;&gt;EventModule -->
<g id="edge2" class="edge">
<title>EventDashboardComponent&#45;&gt;EventModule</title>
<path fill="none" stroke="#000000" d="M705,-122.0225C705,-139.3734 705,-163 705,-163 705,-163 505.3597,-163 505.3597,-163"/>
<polygon fill="#000000" stroke="#000000" points="505.3597,-159.5001 495.3597,-163 505.3596,-166.5001 505.3597,-159.5001"/>
</g>
<!-- EventFormComponent -->
<g id="node3" class="node">
<title>EventFormComponent</title>
<polygon fill="#ffffb3" stroke="#000000" points="600.3244,-122 455.6756,-122 455.6756,-86 600.3244,-86 600.3244,-122"/>
<text text-anchor="middle" x="528" y="-99.8" font-family="Times,serif" font-size="14.00" fill="#000000">EventFormComponent</text>
</g>
<!-- EventFormComponent&#45;&gt;EventModule -->
<g id="edge3" class="edge">
<title>EventFormComponent&#45;&gt;EventModule</title>
<path fill="none" stroke="#000000" d="M475.4709,-122.1061C475.4709,-122.1061 475.4709,-140.991 475.4709,-140.991"/>
<polygon fill="#000000" stroke="#000000" points="471.971,-140.9909 475.4709,-150.991 478.971,-140.991 471.971,-140.9909"/>
</g>
<!-- EventListComponent -->
<g id="node4" class="node">
<title>EventListComponent</title>
<polygon fill="#ffffb3" stroke="#000000" points="437.7688,-122 302.2312,-122 302.2312,-86 437.7688,-86 437.7688,-122"/>
<text text-anchor="middle" x="370" y="-99.8" font-family="Times,serif" font-size="14.00" fill="#000000">EventListComponent</text>
</g>
<!-- EventListComponent&#45;&gt;EventModule -->
<g id="edge4" class="edge">
<title>EventListComponent&#45;&gt;EventModule</title>
<path fill="none" stroke="#000000" d="M420.3903,-122.1061C420.3903,-122.1061 420.3903,-140.991 420.3903,-140.991"/>
<polygon fill="#000000" stroke="#000000" points="416.8903,-140.9909 420.3903,-150.991 423.8903,-140.991 416.8903,-140.9909"/>
</g>
<!-- EventRoutingModule -->
<g id="node6" class="node">
<title>EventRoutingModule</title>
<polygon fill="#8dd3c7" stroke="#000000" points="277.8258,-122 274.8258,-126 253.8258,-126 250.8258,-122 140.1742,-122 140.1742,-86 277.8258,-86 277.8258,-122"/>
<text text-anchor="middle" x="209" y="-99.8" font-family="Times,serif" font-size="14.00" fill="#000000">EventRoutingModule</text>
</g>
<!-- EventRoutingModule&#45;&gt;EventModule -->
<g id="edge5" class="edge">
<title>EventRoutingModule&#45;&gt;EventModule</title>
<path fill="none" stroke="#000000" d="M209,-122.0225C209,-139.3734 209,-163 209,-163 209,-163 392.7256,-163 392.7256,-163"/>
<polygon fill="#000000" stroke="#000000" points="392.7256,-166.5001 402.7256,-163 392.7256,-159.5001 392.7256,-166.5001"/>
</g>
<!-- SharedModule -->
<g id="node7" class="node">
<title>SharedModule</title>
<polygon fill="#8dd3c7" stroke="#000000" points="122.4231,-122 119.4231,-126 98.4231,-126 95.4231,-122 23.5769,-122 23.5769,-86 122.4231,-86 122.4231,-122"/>
<text text-anchor="middle" x="73" y="-99.8" font-family="Times,serif" font-size="14.00" fill="#000000">SharedModule</text>
</g>
<!-- SharedModule&#45;&gt;EventModule -->
<g id="edge6" class="edge">
<title>SharedModule&#45;&gt;EventModule</title>
<path fill="none" stroke="#000000" d="M73,-122.2843C73,-143.3211 73,-175 73,-175 73,-175 392.895,-175 392.895,-175"/>
<polygon fill="#000000" stroke="#000000" points="392.8951,-178.5001 402.895,-175 392.895,-171.5001 392.8951,-178.5001"/>
</g>
</g>
</svg>
